#!OML:ASF H:\MichaelJackson\Top Level 1\Subject 1\Session 1\male.ASF
:FULLY-SPECIFIED
:DEGREES
218
root 3.87579 16.5056 -28.6754 5.77134 19.2454 1.95409
lowerback 0.818797 -5.05988 2.83128
upperback -0.883202 -6.74278 -2.1225
thorax -1.94823 -3.42449 -3.55713
lowerneck -8.34401 -3.00149 -3.16017
upperneck -3.34884 -3.70489 4.96499
head 0.529352 -1.76439 1.98775
rclavicle -2.22887e-014 1.19271e-014
rhumerus -41.6968 47.3249 -50.5522
rradius 130.055
rwrist -23.6527
rhand 14.1338 -7.0337
rfingers 7.12502
rthumb 39.0357 -32.5435
lclavicle -2.22887e-014 1.19271e-014
lhumerus -47.4819 -31.0286 111.349
lradius 47.8924
lwrist 10.2414
lhand 40.8381 28.8161
lfingers 7.12502
lthumb 63.0862 38.8884
rfemur -19.3106 -9.2568 -4.78719
rtibia 46.594
rfoot 1.52665 -28.9956
rtoes 45.2366
lfemur -22.1929 24.8332 -12.0924
ltibia 41.6578
lfoot -12.7605 -2.44489
ltoes 5.4863
219
root 3.78104 16.4893 -28.6316 5.90067 18.1154 2.13135
lowerback 0.397626 -4.84807 2.72704
upperback -0.93618 -6.47478 -2.45746
thorax -1.77222 -3.29112 -3.89095
lowerneck -8.30292 -2.81122 -2.79075
upperneck -2.98354 -3.49733 4.88323
head 0.619114 -1.66339 1.90146
rclavicle 3.56322e-014 7.55382e-015
rhumerus -36.1722 47.8784 -42.7017
rradius 128.414
rwrist -27.6833
rhand 14.1179 -8.32099
rfingers 7.12502
rthumb 39.0207 -33.8351
lclavicle 3.56322e-014 7.55382e-015
lhumerus -48.1896 -30.4238 110.823
lradius 47.8724
lwrist 11.5504
lhand 40.7391 28.4052
lfingers 7.12502
lthumb 63.005 38.5888
rfemur -18.9236 -7.19584 -5.47715
rtibia 43.6134
rfoot 3.67375 -28.3406
rtoes 42.8116
lfemur -20.7631 22.4478 -10.2032
ltibia 40.2618
lfoot -12.4424 -5.55917
ltoes 1.4605
220
root 3.68145 16.4681 -28.5852 6.04728 17.0939 2.32863
lowerback -0.0569517 -4.68043 2.60993
upperback -1.00258 -6.26422 -2.80694
thorax -1.59474 -3.18647 -4.23084
lowerneck -8.2968 -2.61661 -2.4125
upperneck -2.56792 -3.28614 4.81965
head 0.731846 -1.55871 1.81987
rclavicle -3.64521e-014 -2.38542e-015
rhumerus -30.6755 48.2112 -35.0075
rradius 126.266
rwrist -30.8794
rhand 13.872 -9.44734
rfingers 7.12502
rthumb 38.7888 -35.0275
lclavicle -3.64521e-014 -2.38542e-015
lhumerus -48.8081 -29.8259 110.181
lradius 47.9106
lwrist 13.0178
lhand 40.7725 28.1717
lfingers 7.12502
lthumb 63.0324 38.3179
rfemur -18.5834 -5.20568 -6.17007
rtibia 40.9376
rfoot 5.8767 -27.4686
rtoes 38.6914
lfemur -19.1482 19.6136 -8.28957
ltibia 38.343
lfoot -12.5796 -9.07055
ltoes -2.1405
221
root 3.57795 16.4391 -28.5372 6.19424 16.2056 2.50641
lowerback -0.525059 -4.55615 2.534
upperback -1.08498 -6.10948 -3.165
thorax -1.43532 -3.11081 -4.59984
lowerneck -8.33403 -2.4219 -2.01569
upperneck -2.09162 -3.07891 4.77999
head 0.872708 -1.45361 1.74303
rclavicle 2.17421e-014 7.95139e-015
rhumerus -25.4047 48.3156 -27.6445
rradius 123.658
rwrist -33.2153
rhand 13.6444 -10.399
rfingers 7.12502
rthumb 38.5742 -36.0397
lclavicle 2.17421e-014 7.95139e-015
lhumerus -49.3502 -29.3059 109.478
lradius 48.0226
lwrist 14.6643
lhand 40.8621 28.4136
lfingers 7.12502
lthumb 63.1058 38.459
rfemur -18.2607 -3.39407 -6.80656
rtibia 38.632
rfoot 8.02505 -26.3639
rtoes 31.6892
lfemur -17.3821 16.3135 -6.36587
ltibia 35.9255
lfoot -13.1787 -12.8254
ltoes -4.86646
222
root 3.4717 16.4014 -28.4882 6.32278 15.4601 2.63109
lowerback -0.967081 -4.46712 2.52766
upperback -1.19156 -6.00027 -3.51429
thorax -1.32512 -3.06 -4.99354
lowerneck -8.40213 -2.23957 -1.59692
upperneck -1.56604 -2.89321 4.75029
head 1.03645 -1.35694 1.66556
rclavicle -1.39398e-014 1.66979e-014
rhumerus -20.5296 48.1647 -20.7436
rradius 120.625
rwrist -34.761
rhand 13.8612 -11.1786
rfingers 7.12502
rthumb 38.7787 -36.7616
lclavicle -1.39398e-014 1.66979e-014
lhumerus -49.8525 -28.9307 108.806
lradius 48.2117
lwrist 16.4111
lhand 40.9927 29.3299
lfingers 7.12502
lthumb 63.2128 39.227
rfemur -17.9386 -1.85071 -7.32646
rtibia 36.7652
rfoot 9.9653 -24.9906
rtoes 20.2766
lfemur -15.508 12.6033 -4.45043
ltibia 33.0742
lfoot -14.0868 -16.5854
ltoes -6.77569
223
root 3.364 16.3554 -28.4392 6.42513 14.8515 2.6755
lowerback -1.37073 -4.39813 2.61157
upperback -1.3138 -5.91752 -3.84334
thorax -1.26158 -3.02468 -5.41255
lowerneck -8.50468 -2.077 -1.15877
upperneck -1.00381 -2.7392 4.7382
head 1.22052 -1.27333 1.59009
rclavicle -9.14409e-015 2.38542e-014
rhumerus -16.2014 47.6883 -14.4519
rradius 117.16
rwrist -35.6342
rhand 14.9509 -11.7559
rfingers 7.12502
rthumb 39.8054 -37.0404
lclavicle -9.14409e-015 2.38542e-014
lhumerus -50.3277 -28.7837 108.251
lradius 48.463
lwrist 18.1788
lhand 41.0477 31.0334
lfingers 7.12502
lthumb 63.2578 40.8678
rfemur -17.6271 -0.620642 -7.68699
rtibia 35.3855
rfoot 11.52 -23.3781
rtoes 4.42286
lfemur -13.5913 8.59857 -2.56527
ltibia 29.8928
lfoot -15.119 -20.1306
ltoes -8.07894
